<svg width="72" height="120" viewBox="0 0 72 120" fill="none" xmlns="http://www.w3.org/2000/svg">
<path d="M35.662 120V119.954H36.951V119.908H37.6875V119.863H38.4241V119.817H39.0225V119.771H39.4828V119.725H39.8972V119.679H40.3575V119.634H40.7718V119.588H41.1861V119.542H41.4623V119.496H41.7845V119.45H42.1068V119.405H42.383V119.359H42.7052V119.313H43.0275V119.267H43.2576V119.221H43.4878V119.175H43.764V119.13H43.9942V119.084H44.2243V119.038H44.4545V118.992H44.6847V118.946H44.9148V118.901H45.145V118.855H45.3291V118.809H45.5133V118.763H45.6974V118.717H45.8816V118.672H46.0657V118.626H46.2498V118.58H46.434V118.534H46.6181V118.488H46.8022V118.443H46.9864V118.397H47.1245V118.351H47.2626V118.305H47.4467V118.259H47.5848V118.213H47.7229V118.168H47.861V118.122H48.0451V118.076H48.1833V118.03H48.3214V117.984H48.5055V117.939H48.6436V117.893H48.7817V117.847H48.8738V117.801H49.0119V117.755H49.15V117.71H49.242V117.664H49.3801V117.618H49.5182V117.572H49.6563V117.526H49.7484V117.48H49.8865V117.435H50.0246V117.389H50.1167V117.343H50.2548V117.297H50.3468V117.251H50.4849V117.206H50.577V117.16H50.6691V117.114H50.7611V117.068H50.8532V117.022H50.9913V116.977H51.0834V116.931H51.1755V116.885H51.2675V116.839H51.4056V116.793H51.4977V116.748H51.5898V116.702H51.6818V116.656H51.7739V116.61H51.866V116.564H51.958V116.518H52.0501V116.473H52.1422V116.427H52.1882V116.381H52.2803V116.335H52.3723V116.289H52.4644V116.244H52.5565V116.198H52.6485V116.152H52.6946V116.106H52.7866V116.06H52.8787V116.015H52.9708V115.969H53.0628V115.923H53.1089V115.877H53.2009V115.831H53.247V115.786H53.339V115.74H53.3851V115.694H53.4771V115.648H53.5232V115.602H53.6152V115.556H53.6613V115.511H53.7533V115.465H53.7994V115.419H53.8915V115.373H53.9375V115.327H54.0296V115.282H54.0756V115.236H54.1677V115.19H54.2137V115.144H54.2597V115.098H54.3058V115.053H54.3518V115.007H54.4439V114.961H54.4899V114.915H54.5359V114.869H54.582V114.824H54.628V114.778H54.7201V114.732H54.7661V114.686H54.8121V114.64H54.8582V114.594H54.9042V114.549H54.9502V114.503H55.0423V114.457H55.0883V114.411H55.1344V114.365H55.1804V114.32H55.2264V114.274H55.2725V114.228H55.3185V114.136H55.3645V114.091H55.4106V114.045H55.4566V113.999H55.5026V113.953H55.5487V113.907H55.5947V113.861H55.6407V113.816H55.6868V113.77H55.7328V113.678H55.7788V113.632H55.8249V113.587H55.8709V113.541H55.9169V113.495H55.963V113.403H56.009V113.312H56.055V113.266H56.1011V113.174H56.1471V113.129H56.1931V113.037H56.2392V112.945H56.2852V112.899H56.3312V112.808H56.3773V112.762H56.4233V112.67H56.4693V112.579H56.5154V112.441H56.5614V112.304H56.6075V112.212H56.6535V112.075H56.6995V111.937H56.7456V111.846H56.7916V111.663H56.8376V111.388H56.8837V111.113H56.9297V110.426H56.8837V110.151H56.8376V109.876H56.7916V109.739H56.7456V109.601H56.6995V109.464H56.6535V109.326H56.6075V109.235H56.5614V109.097H56.5154V108.96H56.4693V108.868H56.4233V108.777H56.3773V108.731H56.3312V108.639H56.2852V108.593H56.2392V108.502H56.1931V108.456H56.1471V108.364H56.1011V108.273H56.055V108.227H56.009V108.135H55.963V108.089H55.9169V107.998H55.8709V107.952H55.8249V107.906H55.7788V107.86H55.7328V107.815H55.6868V107.723H55.6407V107.677H55.5947V107.631H55.5487V107.585H55.5026V107.54H55.4566V107.494H55.4106V107.448H55.3645V107.402H55.3185V107.356H55.2725V107.265H55.2264V107.219H55.1804V107.173H55.1344V107.127H55.0883V107.082H54.9963V107.036H54.9502V106.99H54.9042V106.944H54.8582V106.898H54.8121V106.853H54.7661V106.807H54.674V106.761H54.628V106.715H54.582V106.669H54.5359V106.623H54.4899V106.578H54.3978V106.532H54.3518V106.486H54.3058V106.44H54.2597V106.394H54.2137V106.349H54.1216V106.303H54.0756V106.257H53.9835V106.211H53.9375V106.165H53.8454V106.12H53.7994V106.074H53.7073V106.028H53.6613V105.982H53.5692V105.936H53.5232V105.89H53.4771V105.845H53.3851V105.799H53.339V105.753H53.247V105.707H53.2009V105.661H53.1089V105.616H53.0628V105.57H52.9708V105.524H52.8787V105.478H52.7866V105.432H52.6946V105.387H52.6025V105.341H52.5565V105.295H52.4644V105.249H52.3723V105.203H52.2803V105.158H52.1882V105.112H52.0961V105.066H52.0501V105.02H51.958V104.974H51.866V104.928H51.7739V104.883H51.6818V104.837H51.5898V104.791H51.4977V104.745H51.3596V104.699H51.2675V104.654H51.1755V104.608H51.0834V104.562H50.9453V104.516H50.8532V104.47H50.7611V104.425H50.6691V104.379H50.577V104.333H50.4389V104.287H50.3468V104.241H50.2548V104.196H50.1167V104.15H49.9786V104.104H49.8865V104.058H49.7484V104.012H49.6103V103.966H49.5182V103.921H49.3801V103.875H49.242V103.829H49.1039V103.783H49.0119V103.737H48.8738V103.692H48.7357V103.646H48.5976V103.6H48.4595V103.554H48.3214V103.508H48.1833V103.463H47.9991V103.417H47.861V103.371H47.7229V103.325H47.5848V103.279H47.4007V103.233H47.2626V103.188H47.1245V103.142H46.9403V103.096H46.7562V103.05H46.5721V103.004H46.3879V102.959H46.2038V102.913H46.0197V102.867H45.8355V102.821H45.6514V102.775H45.4673V102.73H45.2831V102.684H45.099V102.638H44.8688V102.592H44.6386V102.546H44.4085V102.501H44.1783V102.455H43.9481V102.409H43.718V102.363H43.4878V102.317H43.2576V102.271H42.9814V102.226H42.6592V102.18H42.383V102.134H42.0607V102.088H41.7385V102.042H41.4623V101.997H41.1401V101.951H40.7258V101.905H40.3115V101.859H39.8511V101.813H39.4368V101.768H38.9765V101.722H38.332V101.676H37.5955V101.63H36.8589V101.584H35.4779V101.539H33.1762V101.584H31.7492V101.63H31.0126V101.676H30.2761V101.722H29.6316V101.768H29.1713V101.813H28.757V101.859H28.2966V101.905H27.8823V101.951H27.468V101.997H27.1918V102.042H26.8696V102.088H26.5473V102.134H26.2711V102.18H25.9489V102.226H25.6266V102.271H25.3504V102.317H25.1203V102.363H24.8901V102.409H24.6599V102.455H24.4298V102.501H24.1996V102.546H23.9694V102.592H23.7393V102.638H23.5091V102.684H23.325V102.73H23.1408V102.775H22.9567V102.821H22.7725V102.867H22.5884V102.913H22.4043V102.959H22.2201V103.004H22.036V103.05H21.8519V103.096H21.6677V103.142H21.4836V103.188H21.3455V103.233H21.2074V103.279H21.0693V103.325H20.8852V103.371H20.7471V103.417H20.609V103.463H20.4709V103.508H20.2867V103.554H20.1486V103.6H20.0105V103.646H19.8724V103.692H19.7343V103.737H19.5962V103.783H19.5041V103.829H19.366V103.875H19.2279V103.921H19.1359V103.966H18.9978V104.012H18.8597V104.058H18.7676V104.104H18.6295V104.15H18.4914V104.196H18.3533V104.241H18.2612V104.287H18.1692V104.333H18.0771V104.379H17.939V104.425H17.8469V104.47H17.7549V104.516H17.6628V104.562H17.5247V104.608H17.4326V104.654H17.3405V104.699H17.2485V104.745H17.1564V104.791H17.0183V104.837H16.9262V104.883H16.8342V104.928H16.7421V104.974H16.65V105.02H16.604V105.066H16.5119V105.112H16.4199V105.158H16.3278V105.203H16.2357V105.249H16.1437V105.295H16.0976V105.341H16.0056V105.387H15.9135V105.432H15.8214V105.478H15.7294V105.524H15.6373V105.57H15.5913V105.616H15.4992V105.661H15.4532V105.707H15.3611V105.753H15.3151V105.799H15.223V105.845H15.177V105.89H15.0849V105.936H15.0389V105.982H14.9468V106.028H14.9008V106.074H14.8087V106.12H14.7627V106.165H14.6706V106.211H14.6245V106.257H14.5325V106.303H14.4865V106.349H14.3944V106.394H14.3483V106.44H14.3023V106.486H14.2563V106.532H14.2102V106.578H14.1642V106.623H14.0721V106.669H14.0261V106.715H13.9801V106.761H13.934V106.807H13.888V106.853H13.7959V106.898H13.7499V106.944H13.7039V106.99H13.6578V107.036H13.6118V107.082H13.5658V107.127H13.4737V107.173H13.4277V107.219H13.3816V107.311H13.3356V107.356H13.2896V107.402H13.2435V107.448H13.1975V107.494H13.1515V107.54H13.1054V107.585H13.0594V107.631H13.0134V107.723H12.9673V107.769H12.9213V107.815H12.8753V107.86H12.8292V107.906H12.7832V107.952H12.7372V107.998H12.6911V108.089H12.6451V108.135H12.5991V108.227H12.553V108.318H12.507V108.364H12.461V108.456H12.4149V108.502H12.3689V108.593H12.3229V108.685H12.2768V108.731H12.2308V108.822H12.1848V108.868H12.1387V109.006H12.0927V109.143H12.0467V109.235H12.0006V109.372H11.9546V109.51H11.9086V109.601H11.8625V109.739H11.8165V109.922H11.7705V110.197H11.7244V110.472H11.6784V111.067H11.7244V111.342H11.7705V111.617H11.8165V111.8H11.8625V111.937H11.9086V112.075H11.9546V112.167H12.0006V112.304H12.0467V112.441H12.0927V112.533H12.1387V112.67H12.1848V112.716H12.2308V112.808H12.2768V112.899H12.3229V112.945H12.3689V113.037H12.4149V113.083H12.461V113.174H12.507V113.22H12.553V113.312H12.5991V113.403H12.6451V113.449H12.6911V113.541H12.7372V113.587H12.7832V113.632H12.8292V113.678H12.8753V113.724H12.9213V113.77H12.9673V113.861H13.0134V113.907H13.0594V113.953H13.1054V113.999H13.1515V114.045H13.1975V114.091H13.2435V114.136H13.2896V114.182H13.3356V114.274H13.3816V114.32H13.4277V114.365H13.4737V114.411H13.5197V114.457H13.6118V114.503H13.6578V114.549H13.7039V114.594H13.7499V114.64H13.7959V114.686H13.842V114.732H13.934V114.778H13.9801V114.824H14.0261V114.869H14.0721V114.915H14.1182V114.961H14.2102V115.007H14.2563V115.053H14.3023V115.098H14.3483V115.144H14.3944V115.19H14.4865V115.236H14.5325V115.282H14.6245V115.327H14.6706V115.373H14.7627V115.419H14.8087V115.465H14.9008V115.511H14.9468V115.556H15.0389V115.602H15.0849V115.648H15.1309V115.694H15.223V115.74H15.269V115.786H15.3611V115.831H15.4071V115.877H15.4992V115.923H15.5452V115.969H15.6373V116.015H15.7294V116.06H15.8214V116.106H15.9135V116.152H16.0056V116.198H16.0516V116.244H16.1437V116.289H16.2357V116.335H16.3278V116.381H16.4199V116.427H16.5119V116.473H16.558V116.518H16.65V116.564H16.7421V116.61H16.8342V116.656H16.9262V116.702H17.0183V116.748H17.1104V116.793H17.2485V116.839H17.3405V116.885H17.4326V116.931H17.5247V116.977H17.6168V117.022H17.7549V117.068H17.8469V117.114H17.939V117.16H18.0311V117.206H18.1692V117.251H18.2612V117.297H18.3533V117.343H18.4914V117.389H18.6295V117.435H18.7216V117.48H18.8597V117.526H18.9978V117.572H19.0898V117.618H19.2279V117.664H19.366V117.71H19.4581V117.755H19.5962V117.801H19.7343V117.847H19.8264V117.893H19.9645V117.939H20.1486V117.984H20.2867V118.03H20.4248V118.076H20.5629V118.122H20.7471V118.168H20.8852V118.213H21.0233V118.259H21.1614V118.305H21.3455V118.351H21.4836V118.397H21.6217V118.443H21.8058V118.488H21.99V118.534H22.1741V118.58H22.3582V118.626H22.5424V118.672H22.7265V118.717H22.9106V118.763H23.0948V118.809H23.2789V118.855H23.4631V118.901H23.6932V118.946H23.9234V118.992H24.1536V119.038H24.3837V119.084H24.6599V119.13H24.8901V119.175H25.1203V119.221H25.3504V119.267H25.5806V119.313H25.9029V119.359H26.2251V119.405H26.5013V119.45H26.8235V119.496H27.1458V119.542H27.422V119.588H27.8363V119.634H28.2506V119.679H28.7109V119.725H29.1252V119.771H29.5856V119.817H30.184V119.863H30.9205V119.908H31.6571V119.954H32.946V120" fill="#DCFCE7"/>
<path d="M33.4446 18.1655H35.6504V3.76959H33.4446V18.1655Z" fill="#86EFAC"/>
<path d="M26.9266 26.1178H42.1666C43.2904 26.1178 44.2012 25.2123 44.2012 24.0951V18.6803C44.2012 17.563 43.2904 16.6576 42.1666 16.6576H26.9266C25.8032 16.6576 24.892 17.563 24.892 18.6803V24.0951C24.892 25.2123 25.8032 26.1178 26.9266 26.1178Z" fill="#16A34A"/>
<path d="M15.929 73.4189H53.1651C61.9255 73.4189 69.0938 66.2926 69.0938 57.5833V49.3568C69.0938 33.8607 56.3402 21.1821 40.7529 21.1821H28.3412C12.7535 21.1821 0.000358582 33.8607 0.000358582 49.3568V57.5833C0.000358582 66.3289 7.13207 73.4189 15.929 73.4189ZM34.5468 36.1136C38.094 36.1136 41.5069 36.2085 44.7739 36.3778C53.325 36.8197 60.3008 42.7065 61.3634 50.3634L61.3864 50.5282C61.6999 52.7887 60.4468 54.9924 58.2261 56.0836C57.3221 56.5279 56.3086 56.7607 55.2785 56.7607H13.8156C12.7855 56.7607 11.7724 56.5279 10.868 56.0836C8.64732 54.9924 7.39422 52.7887 7.70773 50.5278C7.71538 50.4727 7.72304 50.4176 7.7307 50.3621C8.79688 42.6765 15.8241 36.813 24.408 36.3728C27.2957 36.2251 30.2947 36.1346 33.3973 36.1167C33.7824 36.1145 34.1649 36.1136 34.5468 36.1136Z" fill="#86EFAC"/>
<path d="M13.8152 56.7607H55.278C56.3082 56.7607 57.3217 56.5278 58.2257 56.0836C60.4463 54.9923 61.6994 52.7887 61.3859 50.5282L61.363 50.3634C60.3004 42.7065 53.3245 36.8197 44.7735 36.3777C41.5065 36.2085 38.0935 36.1135 34.5464 36.1135C34.1644 36.1135 33.782 36.1144 33.3969 36.1166C30.2943 36.1346 27.2953 36.225 24.4076 36.3728C15.8236 36.813 8.79643 42.6765 7.73025 50.3621C7.7226 50.4176 7.71494 50.4727 7.70728 50.5278C7.39378 52.7887 8.64688 54.9923 10.8675 56.0836C11.772 56.5278 12.785 56.7607 13.8152 56.7607ZM24.3526 39.5275C28.6705 39.5275 32.1712 43.0078 32.1712 47.3005C32.1712 51.5931 28.6705 55.0734 24.3526 55.0734C20.0348 55.0734 16.5344 51.5931 16.5344 47.3005C16.5344 43.0078 20.0348 39.5275 24.3526 39.5275ZM45.4743 39.5275C49.7927 39.5275 53.293 43.0078 53.293 47.3005C53.293 51.5931 49.7927 55.0734 45.4743 55.0734C41.1565 55.0734 37.6557 51.5931 37.6557 47.3005C37.6557 43.0078 41.1565 39.5275 45.4743 39.5275Z" fill="#16A34A"/>
<path d="M37.5606 47.3168C37.5606 51.7137 41.1459 55.2792 45.5695 55.2792C49.9932 55.2792 53.5791 51.7137 53.5791 47.3168C53.5791 42.9192 49.9932 39.3544 45.5695 39.3544C41.1459 39.3544 37.5606 42.9192 37.5606 47.3168Z" fill="#DCFCE7"/>
<path d="M40.7613 47.3007C40.7613 49.8885 42.8716 51.9865 45.4747 51.9865C48.0782 51.9865 50.1885 49.8885 50.1885 47.3007C50.1885 44.7124 48.0782 42.6144 45.4747 42.6144C42.8716 42.6144 40.7613 44.7124 40.7613 47.3007Z" fill="url(#paint0_linear_154_1351)"/>
<path d="M42.4551 46.0858C42.4551 47.0446 43.2366 47.822 44.2009 47.822C45.1653 47.822 45.9473 47.0446 45.9473 46.0858C45.9473 45.1275 45.1653 44.3502 44.2009 44.3502C43.2366 44.3502 42.4551 45.1275 42.4551 46.0858Z" fill="#DCFCE7"/>
<path d="M45.4748 50.8943C45.4748 51.2767 45.7869 51.5865 46.1715 51.5865C46.5561 51.5865 46.8682 51.2767 46.8682 50.8943C46.8682 50.5118 46.5561 50.2015 46.1715 50.2015C45.7869 50.2015 45.4748 50.5118 45.4748 50.8943Z" fill="#DCFCE7"/>
<path d="M47.8995 49.855C47.8995 50.0458 48.0553 50.2012 48.2476 50.2012C48.4399 50.2012 48.5957 50.0458 48.5957 49.855C48.5957 49.6634 48.4399 49.5084 48.2476 49.5084C48.0553 49.5084 47.8995 49.6634 47.8995 49.855Z" fill="#DCFCE7"/>
<path d="M16.3868 47.3168C16.3868 51.7137 19.9726 55.2792 24.396 55.2792C28.8195 55.2792 32.4053 51.7137 32.4053 47.3168C32.4053 42.9192 28.8195 39.3544 24.396 39.3544C19.9726 39.3544 16.3868 42.9192 16.3868 47.3168Z" fill="#DCFCE7"/>
<path d="M19.6388 47.3007C19.6388 49.8885 21.7496 51.9865 24.3526 51.9865C26.9557 51.9865 29.0664 49.8885 29.0664 47.3007C29.0664 44.7124 26.9557 42.6144 24.3526 42.6144C21.7496 42.6144 19.6388 44.7124 19.6388 47.3007Z" fill="url(#paint1_linear_154_1351)"/>
<path d="M21.333 46.0858C21.333 47.0446 22.1149 47.822 23.0793 47.822C24.0437 47.822 24.8252 47.0446 24.8252 46.0858C24.8252 45.1275 24.0437 44.3502 23.0793 44.3502C22.1149 44.3502 21.333 45.1275 21.333 46.0858Z" fill="#DCFCE7"/>
<path d="M24.3532 50.8943C24.3532 51.2767 24.6652 51.5865 25.0498 51.5865C25.4345 51.5865 25.7461 51.2767 25.7461 50.8943C25.7461 50.5118 25.4345 50.2015 25.0498 50.2015C24.6652 50.2015 24.3532 50.5118 24.3532 50.8943Z" fill="#DCFCE7"/>
<path d="M26.7779 49.855C26.7779 50.0458 26.9337 50.2012 27.126 50.2012C27.3183 50.2012 27.4746 50.0458 27.4746 49.855C27.4746 49.6634 27.3183 49.5084 27.126 49.5084C26.9337 49.5084 26.7779 49.6634 26.7779 49.855Z" fill="#DCFCE7"/>
<path d="M31.7197 2.81082C31.7197 4.3629 32.9854 5.62122 34.5466 5.62122C36.1083 5.62122 37.374 4.3629 37.374 2.81082C37.374 1.2583 36.1083 -2.09808e-05 34.5466 -2.09808e-05C32.9854 -2.09808e-05 31.7197 1.2583 31.7197 2.81082Z" fill="#86EFAC"/>
<path d="M32.5822 1.71329C32.5822 2.18661 32.9677 2.57037 33.4437 2.57037C33.9193 2.57037 34.3057 2.18661 34.3057 1.71329C34.3057 1.23996 33.9193 0.856642 33.4437 0.856642C32.9677 0.856642 32.5822 1.23996 32.5822 1.71329Z" fill="white"/>
<path d="M10.203 30.1939C10.1656 31.5064 11.2431 33.0755 12.4777 33.2098C13.6344 33.3357 14.5583 32.1606 15.5105 30.9484C16.4496 29.7542 18.5036 26.6863 17.6856 25.8185C16.6073 24.6739 10.2913 27.0983 10.203 30.1939Z" fill="white"/>
<path d="M19.7886 24.2157C19.7886 24.7553 20.2286 25.1923 20.7712 25.1923C21.3139 25.1923 21.7539 24.7553 21.7539 24.2157C21.7539 23.6761 21.3139 23.2386 20.7712 23.2386C20.2286 23.2386 19.7886 23.6761 19.7886 24.2157Z" fill="white"/>
<path d="M25.4512 19.4585C25.5214 19.4688 25.5665 19.0577 25.9102 18.4232C25.9102 18.4232 26.0714 18.1263 26.2552 17.8746C26.8475 17.0645 28.8551 17.0825 29.0132 17.0838C32.1406 17.1107 34.1508 16.9136 34.1504 16.932C34.1499 16.9481 32.6833 16.9181 31.609 16.8966C28.5772 16.8353 26.7705 16.6732 25.9966 17.4806C25.6755 17.8155 25.5138 18.2517 25.5138 18.2517C25.2949 18.8437 25.3674 19.4464 25.4512 19.4585Z" fill="white"/>
<path d="M26.1011 60.0968C26.1772 60.8415 26.8011 61.4152 27.5506 61.4873L37.9079 62.48C38.6569 62.5521 39.3794 62.1079 39.5979 61.3914C39.6947 61.0735 39.7695 60.7448 39.8204 60.4076C39.8344 60.314 39.8096 60.2191 39.7511 60.1448C39.6925 60.0704 39.606 60.0234 39.5114 60.0144L26.4448 58.7611C26.352 58.7521 26.2592 58.7817 26.1885 58.843C26.1178 58.9039 26.0754 58.9912 26.0718 59.0844C26.0565 59.426 26.0669 59.7646 26.1011 60.0968Z" fill="#DCFCE7"/>
<path d="M26.1012 60.0968C26.4318 63.2887 28.9844 65.9133 32.3194 66.2299C35.6085 66.5465 38.5791 64.5184 39.5557 61.5159C39.2949 62.158 38.6165 62.5485 37.9089 62.4787L27.5493 61.4872C26.8003 61.4134 26.1796 60.8415 26.1012 60.0968Z" fill="#16A34A"/>
<path d="M63.8225 75.4277C54.1736 78.0668 51.8939 77.3276 50.1747 79.9106C49.9768 80.2069 48.9686 81.7217 49.1707 83.6668C49.3317 85.2164 50.1957 86.4118 50.7398 86.938C54.0453 90.1329 63.1409 86.2243 68.3504 81.9494C69.4861 81.0177 72.5329 78.5171 71.9192 76.7412C71.6681 76.0133 70.8867 75.6516 70.3262 75.4017C67.8478 74.2946 65.2776 75.03 63.8225 75.4277Z" fill="#16A34A"/>
<path d="M9.78276 83.2229C9.78276 83.3174 9.78275 83.4078 9.7868 83.4942C9.82014 84.358 10.0228 85.0078 10.1219 85.3002C12.9732 93.958 14.6812 98.5238 17.0771 102.217C17.491 102.855 17.9252 103.468 18.3928 104.068C19.0049 104.87 19.6752 105.652 20.4202 106.458C22.0751 108.247 24.5782 109.057 25.3849 109.337C28.3348 110.374 30.941 110.184 32.6747 110.201H32.9769C34.7143 110.184 37.3169 110.374 40.2668 109.337C41.0735 109.057 43.5806 108.247 45.2315 106.458C49.7826 101.534 51.5326 97.4419 55.5293 85.3002C55.6243 85.0203 55.8148 84.4158 55.8603 83.6053C55.873 83.3711 55.877 83.136 55.8644 82.9018C55.7775 81.45 55.186 80.0269 54.1352 78.7274C52.3352 76.4978 49.5552 75.2762 46.6796 75.2637L32.8238 75.2059L19.2202 75.1526C16.2825 75.1405 13.4362 76.3662 11.5701 78.624C10.6683 79.7184 10.0931 80.8988 9.8823 82.1164C9.85347 82.2892 9.82825 82.4656 9.81203 82.6385C9.79536 82.8319 9.78276 83.0249 9.78276 83.2229Z" fill="#86EFAC"/>
<path d="M32.8256 75.2083L46.681 75.2661C49.5565 75.2787 52.3371 76.5002 54.1365 78.7294C55.1874 80.0294 55.7793 81.4525 55.8662 82.9042C55.7959 81.4153 55.1793 79.955 54.083 78.6264C52.2213 76.3681 49.3705 75.143 46.4332 75.1551L32.8256 75.2083Z" fill="#22C55E"/>
<path d="M19.0551 95.5025C19.2578 84.8171 20.7118 82.7049 18.5673 80.1627C18.3209 79.8707 17.0628 78.3796 14.994 77.9994C13.3454 77.6962 11.8486 78.221 11.141 78.62C6.8398 81.0422 8.11632 91.5435 10.9491 98.1728C11.5666 99.6178 13.2238 103.495 15.244 103.403C16.071 103.365 16.6813 102.673 17.1097 102.175C19.0038 99.9693 19.0249 97.1133 19.0551 95.5025Z" fill="#16A34A"/>
<path d="M17.0772 102.217C17.4912 102.855 17.9254 103.468 18.393 104.069C18.542 103.916 18.6745 103.764 18.7938 103.624C20.6888 101.42 20.7095 98.5651 20.7388 96.9525C20.9415 86.2667 22.3978 84.1567 20.2505 81.6145C20.0933 81.4255 19.5181 80.7471 18.5835 80.1833C20.7014 82.717 19.2578 84.8476 19.0546 95.5008C19.0258 97.1129 19.001 99.9671 17.1101 102.176L17.0772 102.217Z" fill="#16A34A"/>
<path d="M11.0124 86.6049C11.0732 85.4567 11.2899 84.6117 11.7228 82.9231C12.2898 80.7136 13.0006 79.6367 12.5389 79.2104C12.2385 78.9327 11.6462 79.1204 11.5124 79.1625C9.48139 79.8068 8.85214 83.5961 8.93907 85.9672C8.99312 87.419 9.34986 89.0423 9.88453 89.1139C9.96921 89.1251 10.1787 89.1144 10.3287 88.9823C10.9259 88.4574 10.966 87.4772 11.0124 86.6049Z" fill="white"/>
<path d="M9.6169 90.6562C9.6169 90.8878 9.80559 91.0754 10.0384 91.0754C10.2713 91.0754 10.46 90.8878 10.46 90.6562C10.46 90.4252 10.2713 90.2375 10.0384 90.2375C9.80559 90.2375 9.6169 90.4252 9.6169 90.6562Z" fill="white"/>
<defs>
<linearGradient id="paint0_linear_154_1351" x1="50.1885" y1="47.3007" x2="40.7614" y2="47.3007" gradientUnits="userSpaceOnUse">
<stop stop-color="#030D14"/>
<stop offset="1" stop-color="#0B2F45"/>
</linearGradient>
<linearGradient id="paint1_linear_154_1351" x1="29.0664" y1="47.3007" x2="19.6394" y2="47.3007" gradientUnits="userSpaceOnUse">
<stop stop-color="#030D14"/>
<stop offset="1" stop-color="#0B2F45"/>
</linearGradient>
</defs>
</svg>
