<svg width="128" height="197" viewBox="0 0 128 197" fill="none" xmlns="http://www.w3.org/2000/svg">
<path d="M64.9798 29.8552H68.5846V6.29719H64.9798V29.8552Z" fill="#93C5FD"/>
<path d="M54.3317 42.8686H79.2329C81.0692 42.8686 82.5574 41.3869 82.5574 39.5586V30.6976C82.5574 28.8693 81.0692 27.3875 79.2329 27.3875H54.3317C52.4962 27.3875 51.0073 28.8693 51.0073 30.6976V39.5586C51.0073 41.3869 52.4962 42.8686 54.3317 42.8686Z" fill="#2563EB"/>
<path d="M36.3618 120.274H97.2032C111.517 120.274 123.23 108.612 123.23 94.36V80.8978C123.23 55.5394 102.391 34.7917 76.9225 34.7917H56.6425C31.1732 34.7917 10.3353 55.5394 10.3353 80.8978V94.36C10.3353 108.672 21.9881 120.274 36.3618 120.274ZM66.7822 59.2261C72.578 59.2261 78.1546 59.3814 83.4926 59.6584C97.4645 60.3817 108.863 70.015 110.599 82.5451L110.636 82.8148C111.149 86.514 109.101 90.1201 105.473 91.9059C103.996 92.6328 102.34 93.0139 100.656 93.0139H32.9086C31.2254 93.0139 29.5702 92.6328 28.0923 91.9059C24.4639 90.1201 22.4165 86.514 22.9287 82.8141C22.9412 82.7239 22.9537 82.6338 22.9662 82.5429C24.7083 69.9659 36.1903 60.3707 50.216 59.6504C54.9343 59.4085 59.8345 59.2605 64.9039 59.2312C65.5332 59.2275 66.1581 59.2261 66.7822 59.2261Z" fill="#93C5FD"/>
<path d="M32.9086 93.0139H100.656C102.34 93.0139 103.996 92.6329 105.473 91.9059C109.101 90.1201 111.149 86.514 110.636 82.8148L110.599 82.5452C108.863 70.0151 97.4645 60.3817 83.4926 59.6584C78.1545 59.3815 72.578 59.2261 66.7822 59.2261C66.158 59.2261 65.5332 59.2276 64.9039 59.2312C59.8345 59.2605 54.9343 59.4086 50.2159 59.6504C36.1903 60.3707 24.7083 69.966 22.9662 82.543C22.9537 82.6338 22.9412 82.724 22.9287 82.8141C22.4164 86.514 24.4639 90.1201 28.0923 91.9059C29.5702 92.6329 31.2254 93.0139 32.9086 93.0139ZM50.1262 64.8129C57.1813 64.8129 62.9013 70.5082 62.9013 77.5328C62.9013 84.5574 57.1813 90.2527 50.1262 90.2527C43.071 90.2527 37.3517 84.5574 37.3517 77.5328C37.3517 70.5082 43.071 64.8129 50.1262 64.8129ZM84.6378 64.8129C91.6937 64.8129 97.413 70.5082 97.413 77.5328C97.413 84.5574 91.6937 90.2527 84.6378 90.2527C77.5827 90.2527 71.8626 84.5574 71.8626 77.5328C71.8626 70.5082 77.5827 64.8129 84.6378 64.8129Z" fill="#2563EB"/>
<path d="M71.7064 77.5595C71.7064 84.7548 77.5646 90.5895 84.7925 90.5895C92.0204 90.5895 97.8796 84.7548 97.8796 77.5595C97.8796 70.3632 92.0204 64.5295 84.7925 64.5295C77.5646 64.5295 71.7064 70.3632 71.7064 77.5595Z" fill="#EEFDFF"/>
<path d="M76.9366 77.5332C76.9366 81.768 80.3847 85.2011 84.6379 85.2011C88.8919 85.2011 92.34 81.768 92.34 77.5332C92.34 73.2976 88.8919 69.8644 84.6379 69.8644C80.3847 69.8644 76.9366 73.2976 76.9366 77.5332Z" fill="url(#paint0_linear_253_4226)"/>
<path d="M79.7046 75.5452C79.7046 77.1141 80.9815 78.3863 82.5572 78.3863C84.133 78.3863 85.4106 77.1141 85.4106 75.5452C85.4106 73.977 84.133 72.7049 82.5572 72.7049C80.9815 72.7049 79.7046 73.977 79.7046 75.5452Z" fill="#EEFDFF"/>
<path d="M84.6381 83.4138C84.6381 84.0396 85.1482 84.5467 85.7767 84.5467C86.4052 84.5467 86.9153 84.0396 86.9153 83.4138C86.9153 82.788 86.4052 82.2802 85.7767 82.2802C85.1482 82.2802 84.6381 82.788 84.6381 83.4138Z" fill="#EEFDFF"/>
<path d="M88.5997 81.7132C88.5997 82.0253 88.8544 82.2796 89.1686 82.2796C89.4829 82.2796 89.7375 82.0253 89.7375 81.7132C89.7375 81.3995 89.4829 81.146 89.1686 81.146C88.8544 81.146 88.5997 81.3995 88.5997 81.7132Z" fill="#EEFDFF"/>
<path d="M37.1101 77.5595C37.1101 84.7548 42.9691 90.5895 50.1967 90.5895C57.4243 90.5895 63.2833 84.7548 63.2833 77.5595C63.2833 70.3632 57.4243 64.5295 50.1967 64.5295C42.9691 64.5295 37.1101 70.3632 37.1101 77.5595Z" fill="#EEFDFF"/>
<path d="M42.4243 77.5332C42.4243 81.768 45.8731 85.2011 50.1263 85.2011C54.3796 85.2011 57.8284 81.768 57.8284 77.5332C57.8284 73.2976 54.3796 69.8644 50.1263 69.8644C45.8731 69.8644 42.4243 73.2976 42.4243 77.5332Z" fill="url(#paint1_linear_253_4226)"/>
<path d="M45.1921 75.5452C45.1921 77.1141 46.4698 78.3863 48.0455 78.3863C49.6213 78.3863 50.8982 77.1141 50.8982 75.5452C50.8982 73.977 49.6213 72.7049 48.0455 72.7049C46.4698 72.7049 45.1921 73.977 45.1921 75.5452Z" fill="#EEFDFF"/>
<path d="M50.1264 83.4138C50.1264 84.0396 50.6365 84.5467 51.265 84.5467C51.8935 84.5467 52.4028 84.0396 52.4028 83.4138C52.4028 82.788 51.8935 82.2802 51.265 82.2802C50.6365 82.2802 50.1264 82.788 50.1264 83.4138Z" fill="#EEFDFF"/>
<path d="M54.0881 81.7132C54.0881 82.0253 54.3428 82.2796 54.657 82.2796C54.9713 82.2796 55.2267 82.0253 55.2267 81.7132C55.2267 81.3995 54.9713 81.146 54.657 81.146C54.3428 81.146 54.0881 81.3995 54.0881 81.7132Z" fill="#EEFDFF"/>
<path d="M62.1633 4.72826C62.1633 7.26814 64.2314 9.3273 66.7823 9.3273C69.334 9.3273 71.4021 7.26814 71.4021 4.72826C71.4021 2.18765 69.334 0.12849 66.7823 0.12849C64.2314 0.12849 62.1633 2.18765 62.1633 4.72826Z" fill="#93C5FD"/>
<path d="M63.5716 2.93217C63.5716 3.70673 64.2016 4.33473 64.9795 4.33473C65.7567 4.33473 66.3882 3.70673 66.3882 2.93217C66.3882 2.1576 65.7567 1.53031 64.9795 1.53031C64.2016 1.53031 63.5716 2.1576 63.5716 2.93217Z" fill="white"/>
<path d="M27.0063 49.539C26.9452 51.6868 28.7057 54.2545 30.723 54.4744C32.613 54.6803 34.1225 52.7574 35.6784 50.7737C37.2129 48.8194 40.569 43.799 39.2325 42.3788C37.4705 40.5058 27.1506 44.4732 27.0063 49.539Z" fill="white"/>
<path d="M42.6685 39.756C42.6685 40.639 43.3876 41.3542 44.2745 41.3542C45.1613 41.3542 45.8804 40.639 45.8804 39.756C45.8804 38.873 45.1613 38.157 44.2745 38.157C43.3876 38.157 42.6685 38.873 42.6685 39.756Z" fill="white"/>
<path d="M51.9203 31.9711C52.0351 31.9879 52.1087 31.3152 52.6702 30.2768C52.6702 30.2768 52.9337 29.791 53.234 29.3792C54.2018 28.0535 57.4821 28.0828 57.7404 28.085C62.8503 28.129 66.135 27.8066 66.1343 27.8366C66.1335 27.863 63.7372 27.8139 61.9819 27.7787C57.028 27.6783 54.076 27.4131 52.8115 28.7343C52.2868 29.2824 52.0226 29.9962 52.0226 29.9962C51.6649 30.9649 51.7834 31.9513 51.9203 31.9711Z" fill="white"/>
<path d="M55.3786 103.605C56.4264 108.75 60.9967 112.618 66.4705 112.601C71.8695 112.592 76.376 108.815 77.4841 103.769C77.1626 104.856 76.122 105.601 74.9601 105.6L57.9557 105.638C56.7258 105.637 55.6251 104.805 55.3786 103.605Z" fill="#2563EB"/>
<path d="M55.3791 103.605C55.6219 104.806 56.7281 105.64 57.9584 105.638L74.9593 105.602C76.1889 105.6 77.2928 104.761 77.5336 103.56C77.6402 103.026 77.7093 102.479 77.7382 101.922C77.7459 101.767 77.6905 101.617 77.5834 101.505C77.4763 101.393 77.3281 101.33 77.1729 101.331L55.7245 101.375C55.5722 101.375 55.4261 101.438 55.3209 101.549C55.2156 101.659 55.1607 101.808 55.1697 101.961C55.1994 102.519 55.2704 103.069 55.3791 103.605Z" fill="#EEFDFF"/>
<path d="M114.636 124.356C98.8675 128.675 95.142 127.465 92.3325 131.692C92.0091 132.177 90.3615 134.656 90.6917 137.839C90.9547 140.375 92.3667 142.331 93.2559 143.192C98.6579 148.421 113.522 142.024 122.036 135.029C123.892 133.504 128.871 129.412 127.868 126.506C127.458 125.315 126.181 124.723 125.265 124.314C121.214 122.502 117.014 123.706 114.636 124.356Z" fill="#2563EB"/>
<path d="M13.3638 124.356C29.1325 128.675 32.858 127.465 35.6675 131.692C35.9909 132.177 37.6385 134.656 37.3083 137.839C37.0453 140.375 35.6333 142.331 34.7441 143.192C29.3421 148.421 14.4778 142.024 5.96422 135.029C4.10832 133.504 -0.870895 129.412 0.132072 126.506C0.542439 125.315 1.81944 124.723 2.7354 124.314C6.78564 122.502 10.9859 123.706 13.3638 124.356Z" fill="#2563EB"/>
<path d="M26.3194 136.318C26.3194 136.472 26.3194 136.62 26.3261 136.762C26.3805 138.175 26.7117 139.239 26.8736 139.717C31.5324 153.885 34.3232 161.357 38.2379 167.401C38.9143 168.444 39.6238 169.447 40.3877 170.43C41.3879 171.743 42.4831 173.021 43.7004 174.34C46.4044 177.269 50.4942 178.594 51.8124 179.051C56.6323 180.749 60.8907 180.439 63.7235 180.466H64.2173C67.056 180.439 71.3085 180.749 76.1285 179.051C77.4466 178.594 81.5431 177.269 84.2405 174.34C91.6768 166.283 94.5361 159.586 101.066 139.717C101.222 139.259 101.533 138.27 101.607 136.943C101.628 136.56 101.635 136.175 101.614 135.792C101.472 133.416 100.506 131.088 98.7886 128.961C95.8476 125.312 91.3051 123.313 86.6066 123.293L63.9671 123.198L41.7397 123.111C36.9397 123.091 32.289 125.097 29.2398 128.792C27.7664 130.583 26.8265 132.514 26.4821 134.507C26.435 134.79 26.3938 135.078 26.3673 135.361C26.34 135.678 26.3194 135.994 26.3194 136.318Z" fill="#93C5FD"/>
<path d="M63.971 123.202L86.6098 123.297C91.3083 123.317 95.8515 125.316 98.7918 128.964C100.509 131.092 101.476 133.421 101.618 135.796C101.503 133.36 100.496 130.97 98.7042 128.796C95.6624 125.1 91.0043 123.095 86.205 123.115L63.971 123.202Z" fill="url(#paint2_linear_253_4226)"/>
<defs>
<linearGradient id="paint0_linear_253_4226" x1="92.34" y1="77.5331" x2="76.9368" y2="77.5331" gradientUnits="userSpaceOnUse">
<stop stop-color="#030D14"/>
<stop offset="1" stop-color="#0B2F45"/>
</linearGradient>
<linearGradient id="paint1_linear_253_4226" x1="57.8284" y1="77.5331" x2="42.4252" y2="77.5331" gradientUnits="userSpaceOnUse">
<stop stop-color="#030D14"/>
<stop offset="1" stop-color="#0B2F45"/>
</linearGradient>
<linearGradient id="paint2_linear_253_4226" x1="101.618" y1="135.796" x2="73.4831" y2="111.911" gradientUnits="userSpaceOnUse">
<stop stop-color="#6CEFEF"/>
<stop offset="0.650677" stop-color="#4648FF"/>
<stop offset="1" stop-color="#712FFF"/>
</linearGradient>
</defs>
</svg>
