<svg width="14" height="19" viewBox="0 0 14 19" fill="none" xmlns="http://www.w3.org/2000/svg">
<path d="M0.65332 17.3294V1.52594C0.65332 1.04436 1.04372 0.653961 1.5253 0.653961H11.9891C12.4707 0.653961 12.8611 1.04436 12.8611 1.52594V17.3294C12.8611 17.667 12.4938 17.8765 12.2032 17.7047L7.20091 14.7477C6.92722 14.5859 6.58716 14.5859 6.31346 14.7477L1.31117 17.7047C1.02054 17.8765 0.65332 17.667 0.65332 17.3294Z" fill="#3479E9"/>
<path fill-rule="evenodd" clip-rule="evenodd" d="M1.52597 1.30797C1.40557 1.30797 1.30797 1.40557 1.30797 1.52597V16.9473L5.98133 14.1847C6.4603 13.9016 7.05541 13.9016 7.53438 14.1847L12.2077 16.9473V1.52597C12.2077 1.40557 12.1101 1.30797 11.9897 1.30797H1.52597ZM12.5367 17.1418L12.5363 17.1415L12.5367 17.1418ZM0.979045 17.1418C0.979148 17.1417 0.97925 17.1416 0.979354 17.1416L0.979045 17.1418ZM0 1.52597C0 0.683199 0.683199 0 1.52597 0H11.9897C12.8325 0 13.5157 0.683199 13.5157 1.52597V17.3294C13.5157 18.1735 12.5977 18.6972 11.8711 18.2677L6.86879 15.3107C6.80036 15.2702 6.71535 15.2702 6.64692 15.3107L1.64464 18.2677C0.918044 18.6972 0 18.1735 0 17.3294V1.52597Z" fill="#3479E9"/>
</svg>
