<svg width="21" height="22" viewBox="0 0 21 22" fill="none" xmlns="http://www.w3.org/2000/svg">
<path fill-rule="evenodd" clip-rule="evenodd" d="M6.67871 14.8854C6.67871 14.4712 7.0145 14.1354 7.42871 14.1354H13.2437C13.6579 14.1354 13.9937 14.4712 13.9937 14.8854C13.9937 15.2996 13.6579 15.6354 13.2437 15.6354H7.42871C7.0145 15.6354 6.67871 15.2996 6.67871 14.8854Z" fill="#9E9E9E"/>
<path fill-rule="evenodd" clip-rule="evenodd" d="M5.15986 4.72765C4.74731 5.10978 4.3769 5.43822 4.04762 5.72845C4.00115 5.76941 3.95564 5.80949 3.91105 5.84875C3.63214 6.09435 3.38925 6.30824 3.17107 6.50963C2.66576 6.97608 2.34657 7.32827 2.12085 7.72216C1.66835 8.51176 1.5 9.61897 1.5 12.463C1.5 14.5191 1.62306 15.9951 1.90116 17.0653C2.17415 18.1158 2.58112 18.7179 3.12022 19.1048C3.68325 19.509 4.48704 19.7497 5.69745 19.8745C6.90666 19.9991 8.41502 20 10.336 20C12.257 20 13.7653 19.9991 14.9746 19.8745C16.185 19.7497 16.9887 19.509 17.5518 19.1048C18.0909 18.7179 18.4978 18.1158 18.7708 17.0653C19.0489 15.9951 19.172 14.5191 19.172 12.463C19.172 9.61889 19.0039 8.51166 18.5516 7.72204C18.326 7.32818 18.0069 6.97601 17.5017 6.50958C17.2834 6.30801 17.0403 6.09391 16.7611 5.84801C16.7167 5.80898 16.6715 5.76914 16.6253 5.72843C16.2961 5.4382 15.9257 5.10976 15.5131 4.72762C15.2689 4.53041 15.0159 4.31703 14.7537 4.09588C14.1826 3.61414 13.5677 3.09554 12.9044 2.62695C11.9195 1.93118 11.0275 1.5 10.308 1.5C9.59087 1.5 8.71105 1.93121 7.73913 2.62803C7.10484 3.08278 6.52461 3.577 5.97942 4.04137C5.69776 4.28128 5.42544 4.51323 5.15986 4.72765ZM6.86512 1.40897C7.86545 0.691785 9.08213 0 10.308 0C11.5305 0 12.757 0.686325 13.7699 1.4018C14.4858 1.90759 15.1941 2.50449 15.787 3.00416C16.0399 3.21729 16.2719 3.41274 16.4744 3.57587C16.488 3.58681 16.5012 3.59822 16.514 3.61008C16.92 3.98662 17.2854 4.3107 17.6172 4.60318C17.6622 4.64284 17.7067 4.68205 17.7507 4.72083C18.0286 4.96553 18.2868 5.1929 18.5192 5.40748C19.0585 5.90537 19.5124 6.38157 19.8532 6.97646C20.5336 8.16434 20.672 9.67611 20.672 12.463C20.672 14.5504 20.5502 16.182 20.2226 17.4426C19.89 18.7227 19.3305 19.6745 18.4265 20.3234C17.5464 20.9551 16.4304 21.2324 15.1284 21.3666C13.8337 21.5 12.2494 21.5 10.3732 21.5H10.2988C8.42258 21.5 6.83831 21.5 5.54365 21.3666C4.24165 21.2324 3.12562 20.9551 2.24553 20.3234C1.34151 19.6745 0.782035 18.7227 0.449374 17.4426C0.121812 16.182 0 14.5504 0 12.463C0 9.67603 0.138653 8.16424 0.819404 6.97634C1.1603 6.38148 1.6143 5.9053 2.15365 5.40743C2.38583 5.1931 2.64376 4.966 2.92131 4.72161C2.96565 4.68257 3.01048 4.64309 3.0558 4.60316C3.38761 4.31069 3.75299 3.98661 4.15901 3.61008C4.17184 3.59818 4.18508 3.58674 4.19871 3.57577C4.41083 3.40502 4.65839 3.19454 4.92993 2.96367C5.50391 2.47566 6.18504 1.89655 6.86512 1.40897Z" fill="#9E9E9E"/>
</svg>
