<svg width="22" height="21" viewBox="0 0 22 21" fill="none" xmlns="http://www.w3.org/2000/svg">
<path d="M5.5887 9.11765V18.5294C5.5887 18.8414 5.46475 19.1407 5.24411 19.3613C5.02348 19.5819 4.72424 19.7059 4.41222 19.7059H2.05928C1.74726 19.7059 1.44802 19.5819 1.22739 19.3613C1.00676 19.1407 0.882813 18.8414 0.882812 18.5294V10.2941C0.882812 9.9821 1.00676 9.68286 1.22739 9.46223C1.44802 9.2416 1.74726 9.11765 2.05928 9.11765H5.5887ZM5.5887 9.11765C6.83677 9.11765 8.03373 8.62185 8.91626 7.73933C9.79878 6.8568 10.2946 5.65984 10.2946 4.41177V3.2353C10.2946 2.61126 10.5425 2.01278 10.9837 1.57152C11.425 1.13025 12.0235 0.882355 12.6475 0.882355C13.2716 0.882355 13.87 1.13025 14.3113 1.57152C14.7526 2.01278 15.0005 2.61126 15.0005 3.2353V9.11765H18.5299C19.1539 9.11765 19.7524 9.36555 20.1937 9.80681C20.6349 10.2481 20.8828 10.8466 20.8828 11.4706L19.7063 17.3529C19.5371 18.0747 19.2162 18.6944 18.7918 19.1188C18.3674 19.5432 17.8626 19.7492 17.3534 19.7059H9.11811C8.18205 19.7059 7.28433 19.334 6.62244 18.6721C5.96054 18.0103 5.5887 17.1125 5.5887 16.1765" stroke="#1E252D" stroke-width="1.76471" stroke-linecap="round" stroke-linejoin="round"/>
</svg>
