<svg width="20" height="20" viewBox="0 0 20 20" fill="none" xmlns="http://www.w3.org/2000/svg">
<path d="M18.7373 0.736885L12.3511 18.4216C12.308 18.5157 12.2388 18.5954 12.1518 18.6513C12.0647 18.7072 11.9634 18.7369 11.8599 18.7369C11.7564 18.7369 11.6551 18.7072 11.5681 18.6513C11.481 18.5954 11.4118 18.5157 11.3687 18.4216L7.92996 11.5442L1.05256 8.10553C0.958491 8.06242 0.87878 7.99322 0.822896 7.90614C0.767012 7.81905 0.737305 7.71776 0.737305 7.61429C0.737305 7.51082 0.767012 7.40952 0.822896 7.32244C0.87878 7.23536 0.958491 7.16615 1.05256 7.12304L18.7373 0.736885Z" stroke="#1E252D" stroke-width="1.47373" stroke-linecap="round" stroke-linejoin="round"/>
</svg>
